HIERARCHY
ROOT Hips
{
	OFFSET 0.00000 0.00000 0.00000
	CHANNELS 6 Xposition Yposition Zposition Yrotation Zrotation Xrotation 
	JOINT Lumbar
	{
		OFFSET 0 0 0
		CHANNELS 3 Zrotation Xrotation Yrotation
		JOINT Neck
		{
			OFFSET 0.00 0.2701 0.00
			CHANNELS 3 Zrotation Xrotation Yrotation
			End Site
			{
				OFFSET 0.00 0.1379 0.00
			}
		}
		JOINT RightShoulder
		{
			OFFSET 0.0119 0.2289 0.1181
			CHANNELS 3 Zrotation Xrotation Yrotation
			JOINT RightElbow
			{
				OFFSET 0.00 -0.1475 0.00
				CHANNELS 2 Zrotation Yrotation
				JOINT RightWrist
				{
					OFFSET 0.00 -0.1605 0.00
					CHANNELS 2 Zrotation Xrotation
					End Site
					{
						OFFSET 0.0040 -0.1068 0.0006
					}
				}
			}
		}
		JOINT LeftShoulder
		{
			OFFSET 0.0119 0.2289 -0.1181
			CHANNELS 3 Zrotation Xrotation Yrotation
			JOINT LeftElbow
			{
				OFFSET 0.00 -0.1475 0.00
				CHANNELS 2 Zrotation Yrotation
				JOINT LeftWrist
				{
					OFFSET 0.00 -0.1605 0.00
					CHANNELS 2 Zrotation Xrotation
					End Site
					{
						OFFSET 0.0040 -0.1068 -0.0006
					}
				}
			}
		}
	}
	JOINT RightHip
	{
		OFFSET 0.0316 -0.0424 0.0458
		CHANNELS 3 Zrotation Xrotation Yrotation
		JOINT RightKnee
		{
			OFFSET 0.00 -0.2438 0.00
			CHANNELS 1 Zrotation
			JOINT RightAnkle
			{
				OFFSET 0.00 -0.2449 0.00
				CHANNELS 3 Zrotation Xrotation Yrotation
				End Site
				{
					OFFSET 0.1237 -0.0542 0.0051
				}
			}
		}
	}
	JOINT LeftHip
	{
		OFFSET 0.0316 -0.0424 -0.0458
		CHANNELS 3 Zrotation Xrotation Yrotation
		JOINT LeftKnee
		{
			OFFSET 0.00 -0.2438 0.00
			CHANNELS 1 Zrotation
			JOINT LeftAnkle
			{
				OFFSET 0.00 -0.2449 0.00
				CHANNELS 3 Zrotation Xrotation Yrotation
				End Site
				{
					OFFSET 0.1237 -0.0542 -0.0051
				}
			}
		}
	}
}
MOTION
Frames: 22
Frame Time: 0.02
0.00099 0.00027 6e-05 27.83927 -16.62814 -3.5399 45.53609 -0.78945 -6.04022 -15.38117 3.11886 -0.23716 -23.85311 -5.71964 -4.93599 27.47233 98.10573 9.83643 1.12413 -26.11748 9.48198 -7.69854 33.73557 -79.13613 8.80027 3.36714 27.92418 -2.06173 -4.15236 -20.25739 -6.84691 -4.85825 -3.28463 32.74262 3.75616 -2.43425 -24.1425 -6.66056 3.73285 2.62325
0.00038 0.00014 0.00011 27.85402 -16.7223 -3.54772 45.46052 -0.76849 -6.15067 -15.1941 3.11412 -0.23771 -23.75566 -5.68293 -5.20962 27.28323 98.12999 9.83317 1.11959 -25.98645 8.93598 -5.94192 33.59465 -84.94157 10.54635 2.43679 28.08234 -2.09429 -4.20529 -20.26884 -6.84707 -4.86436 -3.28188 32.90388 3.87885 -1.74201 -24.15709 -6.6535 3.64846 2.57435
-0.00023 2e-05 0.00016 27.86879 -16.81618 -3.5555 45.38508 -0.7476 -6.26093 -15.00758 3.10939 -0.23826 -23.65859 -5.64624 -5.48286 27.09489 98.15404 9.82989 1.11506 -25.85585 8.39179 -4.19114 33.45427 -90.72752 12.28664 1.50961 28.24007 -2.12681 -4.25822 -20.28033 -6.84721 -4.87045 -3.27913 33.0647 4.0011 -1.05217 -24.17168 -6.64646 3.56435 2.52562
-0.00084 -0.0001 0.00021 27.88351 -16.91006 -3.5633 45.30972 -0.7267 -6.37107 -14.82109 3.10467 -0.23881 -23.56145 -5.60963 -5.75573 26.9064 98.17819 9.82664 1.11054 -25.72522 7.8475 -2.44003 33.31382 -96.51472 14.02725 0.5822 28.39775 -2.15928 -4.31104 -20.29176 -6.84736 -4.87654 -3.27639 33.22548 4.12341 -0.36211 -24.18623 -6.63943 3.48022 2.47687
-0.00146 -0.00022 0.00026 27.89817 -17.00421 -3.57112 45.23427 -0.70573 -6.48133 -14.63406 3.09994 -0.23936 -23.46392 -5.57301 -6.02879 26.71708 98.20264 9.82344 1.106 -25.59414 7.30132 -0.68281 33.17278 -102.3223 15.77386 -0.34859 28.55584 -2.19176 -4.36372 -20.30311 -6.84756 -4.88267 -3.27365 33.38665 4.24619 0.33046 -24.20078 -6.63237 3.3958 2.42796
-0.00207 -0.00034 0.00031 27.91319 -17.09753 -3.57883 45.15884 -0.68502 -6.59161 -14.44864 3.09519 -0.2399 -23.36783 -5.5362 -6.30239 26.53082 98.22587 9.81999 1.10149 -25.46456 6.76136 1.05437 33.03377 -108.0626 17.5008 -1.26815 28.71278 -2.22433 -4.41715 -20.31489 -6.84757 -4.88865 -3.27088 33.54672 4.36729 1.01451 -24.21544 -6.62537 3.31235 2.3796
-0.00268 -0.00046 0.00036 27.92747 -17.19241 -3.58676 45.08345 -0.6638 -6.70172 -14.26017 3.09049 -0.24045 -23.26891 -5.4998 -6.57464 26.33861 98.25145 9.81703 1.09693 -25.3321 6.20956 2.82963 32.89089 -113.93086 19.26514 -2.20906 28.8719 -2.25672 -4.4692 -20.32581 -6.84793 -4.89492 -3.26818 33.70886 4.49164 1.71489 -24.22987 -6.61826 3.22706 2.33018
-0.00329 -0.00058 0.00041 27.94245 -17.28585 -3.59448 45.00806 -0.64305 -6.812 -14.07453 3.08573 -0.241 -23.17269 -5.46305 -6.84804 26.15187 98.27499 9.81365 1.09242 -25.20231 5.66849 4.57037 32.75148 -119.68314 20.9955 -3.13069 29.02894 -2.28921 -4.52214 -20.3375 -6.84801 -4.90095 -3.26543 33.86904 4.61302 2.40035 -24.2445 -6.61125 3.14344 2.28173
-0.0039 -0.0007 0.00046 27.95822 -17.37758 -3.60196 44.93244 -0.62287 -6.92252 -13.89221 3.08097 -0.24154 -23.07936 -5.42572 -7.12343 25.97184 98.29554 9.8096 1.08796 -25.07566 5.14108 6.26719 32.61666 -125.28775 22.68296 -4.02749 29.18376 -2.32211 -4.57774 -20.35024 -6.84758 -4.90655 -3.26254 34.02711 4.7307 3.06726 -24.25945 -6.60436 3.0619 2.23449
-0.00453 -0.00082 0.00051 27.96923 -17.47933 -3.61088 44.85747 -0.59942 -7.03175 -13.69035 3.07645 -0.2421 -22.96818 -5.39128 -7.38918 25.75328 98.33176 9.80892 1.08316 -24.9306 4.53672 8.21158 32.45647 -131.7244 24.61322 -5.06335 29.35233 -2.35353 -4.62279 -20.35728 -6.84959 -4.91422 -3.26019 34.19819 4.86946 3.83997 -24.27275 -6.59676 2.9685 2.18035
-0.0051 -0.00094 0.00057 27.99042 -17.55981 -3.61672 44.78158 -0.58283 -7.14362 -13.53003 3.07127 -0.24264 -22.89544 -5.35105 -7.67404 25.61595 98.33591 9.80145 1.0791 -24.8246 4.09368 9.63683 32.34917 -136.41657 26.03369 -5.8082 29.49127 -2.38747 -4.68703 -20.3761 -6.84678 -4.9178 -3.2569 34.34123 4.96386 4.39002 -24.28939 -6.59068 2.90008 2.14075
-0.00553 -0.00112 0.00069 28.03859 -17.58245 -3.61442 44.69947 -0.58558 -7.2634 -13.48217 3.06544 -0.24313 -22.92299 -5.29202 -8.02232 25.70446 98.24355 9.77278 1.07703 -24.82517 4.107 9.59465 32.39391 -136.17495 26.01838 -5.72537 29.55309 -2.43361 -4.83106 -20.42951 -6.82778 -4.90758 -3.24939 34.41143 4.93445 4.31821 -24.31649 -6.58878 2.90125 2.14172
-0.00589 -0.0013 0.00083 28.09707 -17.5837 -3.60894 44.61725 -0.59512 -7.38557 -13.47631 3.05876 -0.24361 -22.99026 -5.22766 -8.38796 25.87413 98.12079 9.73785 1.07575 -24.86518 4.28039 9.03719 32.49065 -134.20166 25.49595 -5.35445 29.58436 -2.48142 -4.99023 -20.49432 -6.8044 -4.89364 -3.24117 34.4527 4.86089 4.02461 -24.34668 -6.58841 2.92733 2.15718
-0.00627 -0.00148 0.00096 28.15151 -17.59434 -3.60472 44.53737 -0.60121 -7.50637 -13.45219 3.0517 -0.24409 -23.04255 -5.16768 -8.73826 26.00457 98.01718 9.70737 1.07404 -24.88742 4.3708 8.74602 32.55885 -133.12591 25.23228 -5.13599 29.62687 -2.52486 -5.12367 -20.55242 -6.7851 -4.88317 -3.23441 34.50452 4.80886 3.83983 -24.3746 -6.58735 2.94128 2.16555
-0.00673 -0.00168 0.00112 28.20351 -17.60612 -3.60133 44.44735 -0.60887 -7.62891 -13.42458 3.0478 -0.24458 -23.0813 -5.09959 -9.11925 26.14451 97.89001 9.66979 1.07243 -24.90864 4.50216 8.3262 32.64716 -131.60953 24.85656 -4.83123 29.6805 -2.58304 -5.33312 -20.617 -6.75738 -4.86549 -3.2231 34.56726 4.75045 3.62159 -24.40621 -6.58631 2.9586 2.17602
-0.00698 -0.00183 0.00122 28.26271 -17.61073 -3.59542 44.379 -0.61487 -7.74773 -13.41432 3.03721 -0.24506 -23.15849 -5.04692 -9.44141 26.2846 97.80592 9.64591 1.07107 -24.94188 4.5894 8.04217 32.70682 -130.56324 24.58344 -4.63141 29.70371 -2.61153 -5.39234 -20.67076 -6.74566 -4.86155 -3.22082 34.60039 4.69498 3.41941 -24.43082 -6.58557 2.97493 2.18563
-0.00671 -0.00184 0.00115 28.34201 -17.59863 -3.58369 44.36575 -0.61458 -7.86153 -13.44049 3.00752 -0.24553 -23.32513 -5.03925 -9.59058 26.3997 97.84476 9.66002 1.06882 -24.99396 4.48657 8.34997 32.66673 -131.57302 24.81275 -4.85052 29.65062 -2.55173 -4.99243 -20.69232 -6.78371 -4.89999 -3.24611 34.55892 4.65798 3.32614 -24.43561 -6.5854 2.98117 2.18859
-0.00623 -0.00179 0.00104 28.42771 -17.58052 -3.56949 44.3752 -0.61249 -7.97056 -13.48289 2.97123 -0.246 -23.53048 -5.04654 -9.68265 26.51367 97.93324 9.68969 1.0677 -25.05764 4.33865 8.7975 32.59758 -133.06013 25.14698 -5.17542 29.56801 -2.46269 -4.447 -20.70258 -6.83729 -4.95184 -3.28013 34.48866 4.62577 3.25509 -24.43318 -6.58544 2.98574 2.1903
-0.00583 -0.00177 0.00095 28.50863 -17.56648 -3.55617 44.37739 -0.61113 -8.07776 -13.51867 2.93857 -0.24646 -23.7225 -5.04692 -9.80303 26.63113 97.99548 9.71149 1.06615 -25.11904 4.231 9.11904 32.54676 -134.10206 25.36883 -5.41213 29.49868 -2.39138 -3.99656 -20.71763 -6.88065 -4.99506 -3.30842 34.43148 4.59143 3.16688 -24.43389 -6.58534 2.99191 2.19307
-0.00549 -0.00176 0.00085 28.59772 -17.54577 -3.54369 44.36668 -0.61001 -8.20131 -13.55274 2.90344 -0.24693 -23.89743 -5.04974 -9.90773 26.7368 98.05346 9.73114 1.06161 -25.16915 4.04755 9.67788 32.47568 -136.02123 25.83898 -5.80364 29.42857 -2.30297 -3.43047 -20.73425 -6.93673 -5.04837 -3.3438 34.3732 4.55452 3.09973 -24.43535 -6.58558 2.99552 2.19433
-0.00498 -0.00171 0.00076 28.67132 -17.53818 -3.529 44.38821 -0.60836 -8.29038 -13.59368 2.87161 -0.2474 -24.11727 -5.04837 -10.03922 26.86831 98.15601 9.76571 1.06691 -25.24506 4.00657 9.79303 32.43976 -136.28169 25.83244 -5.90721 29.3538 -2.24122 -3.06343 -20.74513 -6.97064 -5.08453 -3.36694 34.31092 4.52569 2.99815 -24.43344 -6.58501 3.00358 2.19815
-0.00407 -0.00156 0.0007 28.69923 -17.56525 -3.50824 44.49324 -0.60155 -8.27913 -13.64941 2.85292 -0.24786 -24.44662 -5.05691 -10.18478 27.04825 98.15371 9.77677 1.06815 -25.38886 4.39217 8.55918 32.50291 -131.57202 24.40887 -5.14252 29.27045 -2.27755 -3.345 -20.73953 -6.93427 -5.06431 -3.3503 34.24336 4.50996 2.78604 -24.42472 -6.58327 3.02573 2.2102
